<?xml version="1.0" encoding="UTF-8" standalone="no"?>
<?xml-stylesheet type="text/css" href="../css/main.css"?>
<svg
   xmlns:dc="http://purl.org/dc/elements/1.1/"
   xmlns:cc="http://creativecommons.org/ns#"
   xmlns:rdf="http://www.w3.org/1999/02/22-rdf-syntax-ns#"
   xmlns:svg="http://www.w3.org/2000/svg"
   xmlns="http://www.w3.org/2000/svg"
   xmlns:xlink="http://www.w3.org/1999/xlink"
   xmlns:sodipodi="http://sodipodi.sourceforge.net/DTD/sodipodi-0.dtd"
   xmlns:inkscape="http://www.inkscape.org/namespaces/inkscape"
   viewBox="0 0 438.75 422.5"
   height="422.5"
   width="438.75"
   version="1.1"
   id="svg4380"
   inkscape:version="0.91 r13725"
   sodipodi:docname="mountain.svg">
  
  <metadata
     id="metadata4386">
    <rdf:RDF>
      <cc:Work
         rdf:about="">
        <dc:format>image/svg+xml</dc:format>
        <dc:type
           rdf:resource="http://purl.org/dc/dcmitype/StillImage" />
        <dc:title />
      </cc:Work>
    </rdf:RDF>
  </metadata>
  <defs
     id="defs4384" />
  <path
     style="fill:#000000"
     d="m 400.83334,351.66666 c -2.78933,-19.69878 -16.67199,-35.58797 -21.3841,-54.79166 -6.50457,-17.35545 -12.54411,-34.77167 -20.44919,-51.52627 -5.13766,-14.688 -10.60141,-29.33643 -18.58937,-42.66432 -3.60388,-13.36617 -12.16266,-25.80486 -16.82512,-39.50647 -4.01126,-11.72386 -9.68439,-19.95908 -15.54621,-4.22218 -11.06811,20.30815 -30.39614,-3.63675 -45.53306,7.98613 -15.27269,4.15984 -30.40792,2.16919 -45.65708,-0.004 -19.69536,3.09946 -22.9605,20.86134 -29.68292,36.52588 -2.62228,12.10822 -21.04414,13.08096 -17.21018,-1.64187 -0.11394,-8.06228 21.33552,-26.59797 0.21372,-20.1422 -13.06117,-6.41729 -27.8562,10.86564 -42.1815,2.03512 -8.31433,0.7052 -9.38138,18.67243 -14.18037,25.80422 -12.71421,26.90814 -18.617952,56.79 -33.291796,82.98073 -6.53411,16.84472 -14.384889,34.46507 -27.261828,46.85908 -11.973607,14.15418 -11.09486,-10.67802 -2.761919,-16.53882 11.801754,-21.43133 21.077574,-43.70326 31.094721,-65.97342 5.610118,-16.64648 9.878546,-33.65247 17.747376,-49.33903 4.977126,-14.02214 13.176676,-25.72787 16.454036,-39.90517 7.65504,-14.6537 15.4683,-32.56333 28.69062,-41.82932 16.29912,1.98618 29.44486,16.97087 45.2023,23.38209 18.68558,1.01765 22.98984,-24.63946 35.19208,-35.33344 13.4263,-14.691807 24.47311,-31.209019 34.03842,-48.621456 5.90709,-11.136636 19.17382,-22.331422 25.03469,-4.575514 12.32161,16.327589 22.06138,34.524838 30.7086,53.06933 5.32344,14.24595 13.284,27.80979 19.77092,41.39193 6.31554,14.42639 11.57783,29.74243 20.0757,42.778 11.43648,25.19209 19.97955,51.85934 31.74812,76.76277 4.72973,17.07987 11.96915,33.37929 19.28366,49.51886 7.65284,9.70575 19.51681,32.07375 -4.70032,27.52077 z"
     id="mountain"
     inkscape:label="mountain" />
  <path
     style=""
     d="m 149.59524,166.24137 c 6.34897,-7.26117 37.03293,4.22686 21.03336,-10.31835 -12.66353,-8.02184 -30.04424,-17.01459 -35.02779,3.91435 -8.43853,9.39128 -3.97819,13.40509 7.86317,8.50289 2.07407,-0.60613 4.12414,-1.29752 6.13126,-2.09889 z"
     id="snowL"
     inkscape:label="snowL" />
  <path
     style=""
     d="m 245.55781,152.8125 c 6.40901,-7.63456 13.39081,-10.06395 22.11445,-6.34297 10.56403,-10.37949 25.53479,18.09541 33.46294,-3.00513 13.85737,-14.77667 -5.23841,-25.51292 -7.40582,-40.48579 -5.86832,-9.4448 -15.20712,-27.226172 -25.39044,-26.656981 -8.07283,12.667001 -16.07273,25.920291 -25.62999,37.894501 -8.11469,11.43085 -26.62439,25.99731 -23.40096,39.42 9.39606,-5.98693 17.55485,8.01923 26.24982,-0.82363 z"
     id="snowR"
     inkscape:label="snowR" />
</svg>
