<?xml version="1.0" encoding="UTF-8" standalone="no"?>
<?xml-stylesheet type="text/css" href="../css/main.css"?>
<svg class="pond-svg"
   xmlns:dc="http://purl.org/dc/elements/1.1/"
   xmlns:cc="http://creativecommons.org/ns#"
   xmlns:rdf="http://www.w3.org/1999/02/22-rdf-syntax-ns#"
   xmlns:svg="http://www.w3.org/2000/svg"
   xmlns="http://www.w3.org/2000/svg"
   xmlns:xlink="http://www.w3.org/1999/xlink"
   xmlns:sodipodi="http://sodipodi.sourceforge.net/DTD/sodipodi-0.dtd"
   xmlns:inkscape="http://www.inkscape.org/namespaces/inkscape"
   viewBox="0 0 462.5 420"
   height="420"
   width="462.5"
   version="1.1"
   id="svg5006"
   inkscape:version="0.91 r13725"
   sodipodi:docname="pond.svg">
  
  <metadata
     id="metadata5012">
    <rdf:RDF>
      <cc:Work
         rdf:about="">
        <dc:format>image/svg+xml</dc:format>
        <dc:type
           rdf:resource="http://purl.org/dc/dcmitype/StillImage" />
        <dc:title />
      </cc:Work>
    </rdf:RDF>
  </metadata>
  <defs
     id="defs5010" />
  <path
     style="fill:#000000"
     d="m 215.625,311.6244 c -19.74362,-1.73827 -38.05192,-9.25694 -55.74071,-17.60467 -15.48784,-7.13167 -31.13719,-6.14824 -47.52529,-3.03644 -16.882566,-0.34952 -34.059584,-2.1135 -49.301834,-9.9509 C 46.821405,275.9551 25.091173,266.62054 27.022287,246.25 26.00259,222.02898 44.459718,203.93977 62.489786,190.625 59.092006,179.59037 58.872453,166.51698 51.752719,157.5 c -3.043375,7.25017 -24.832131,22.44468 -19.381511,4.80896 5.691438,-9.49678 8.678212,-24.59994 21.277077,-23.91267 -5.472755,-8.91967 -3.050441,-35.1264 10.709137,-20.30155 4.928859,13.77671 0.904719,32.70792 6.919113,48.15526 0.39995,9.11296 1.129992,30.59131 13.708517,18.75 16.184798,-2.17138 40.036648,-10.59991 28.189728,-31.30133 -2.50407,-21.85918 -9.74619,-43.21067 -9.98506,-65.22959 11.26635,-14.743881 12.94806,10.286784 16.90037,14.17004 9.41735,-15.261184 18.47957,6.60431 23.43955,11.31278 -17.347,1.14645 -23.96291,15.07706 -18.48393,31.68804 -1.0393,19.9738 21.57695,-3.88163 29.87731,-7.76462 13.74456,-6.83388 29.87535,-13.95418 46.45316,-8.9107 14.01669,4.29649 -1.12588,-11.55141 5.83497,-18.60585 3.55991,-17.931354 -7.65565,-27.350673 -22.21953,-30.993859 -6.61077,-13.869491 8.52311,-18.937782 15.72275,-15.086274 0.69122,-12.201348 -14.91364,-39.05552 4.10878,-40.175247 8.21832,12.887502 4.75339,31.001214 10.9256,45.362277 2.24859,17.149488 5.60121,35.930843 3.54747,52.462953 -16.4359,13.81419 17.11563,5.9687 24.69762,6.92616 18.69766,-1.74706 37.00054,0.51759 54.38724,7.54908 8.42576,2.8777 22.69328,13.05257 15.56243,-3.27946 -12.44849,-5.26031 -6.80328,-20.67405 -3.55639,-30.42938 -8.79306,-15.321322 -8.07919,-33.139756 -5.75792,-50.394098 9.15365,-9.454773 1.72383,-28.71954 13.00322,-34.672535 16.14904,10.708781 3.2799,32.699634 6.49251,48.61776 17.19905,0.112195 4.41744,25.932278 -1.09462,31.299079 4.24616,15.775924 6.55651,33.263704 3.79427,49.353984 12.54302,12.60738 31.42966,4.82191 46.26526,13.33821 11.12135,-1.5071 34.27362,18.35541 29.6307,-3.73733 1.03986,-9.01758 5.03216,-23.50173 -6.63976,-11.21876 -20.21943,4.78477 -4.05431,-35.14182 7.31329,-26.89849 12.13566,-0.31018 17.10692,14.3417 24.59651,19.78077 -14.00831,4.44052 -13.287,29.30304 -7.99058,38.71142 12.36788,7.62489 12.54296,22.73355 9.57055,35.80838 -0.29896,17.90621 -3.50671,38.57099 -22.65637,45.47654 -15.36975,9.29164 -28.85911,22.15731 -45.37131,30.43909 -16.35252,8.64169 -34.12902,11.78672 -52.15721,14.32929 -30.59602,7.09088 -62.30392,12.48281 -93.76066,8.69607 z"
     id="pondOuter"
     inkscape:label="pondOuter" />
  <path
     style=""
     
     d="m 243.75,298.51787 c 19.58205,1.03774 38.94126,-2.54107 57.62849,-7.80059 17.30394,-3.47892 34.85106,-5.26344 50.97181,-13.1142 19.85234,-9.56544 38.90659,-21.57867 54.83432,-36.79279 6.14864,-13.53756 12.51673,-34.70026 5.45945,-47.84506 -14.46577,-13.29604 -34.52025,-17.1399 -52.67307,-22.97211 -19.9448,-4.26683 -41.14522,-5.86197 -58.31381,-18.02243 -16.6074,-8.10075 -34.81292,-14.25696 -53.43651,-11.16847 -14.17913,-4.30158 -30.33656,5.09075 -46.34054,1.04243 -17.90096,-1.11076 -38.54263,-2.08772 -48.6553,15.89571 -14.18459,8.12116 -20.18928,22.19948 -32.09823,31.90747 -14.38504,9.67363 -33.008696,9.01424 -47.900153,18.04636 -16.299853,4.52014 -29.730074,20.56588 -31.5474,37.3769 1.548848,18.09746 24.990894,20.91314 38.486795,27.89706 18.11827,3.14874 36.532488,5.4804 54.768568,1.85548 19.83547,1.08112 38.98198,7.76695 56.02261,17.77373 15.17459,3.86114 29.98004,8.06981 46.1478,6.13931 2.21499,-0.0747 4.42994,-0.15292 6.64517,-0.2188 z"
     id="pondInner"
     inkscape:label="pondInner" />
  <path
     style="fill:#000000"
     d="m 280,242.5 c -8.11087,-7.32015 -16.59306,-8.0787 -24.49718,-1.77692 -1.14987,-4.05312 -16.21032,3.27754 -7.94575,-7.03527 7.82049,-12.31143 19.25765,-25.01803 29.58196,-6.8403 10.64868,6.7378 24.55761,-2.98682 32.52913,-10.7663 8.87853,1.54985 23.43837,14.18523 8.14276,16.58519 C 303.93633,227.2824 294.24667,253.00268 280,242.5 Z"
     id="rippleR"
     inkscape:label="rippleR" />
  <path
     style="fill:#000000"
     d="m 117.80123,236.56651 c -11.74261,-12.6925 20.07854,-28.28497 29.56231,-17.66341 13.37107,-2.49181 36.22059,-10.23275 42.14078,7.63141 -7.93466,7.99185 -26.65573,-2.66983 -36.61051,9.36382 -2.09621,-5.0341 -13.22992,-7.76226 -18.91775,-5.75377 15.24754,10.40215 -12.10341,10.90418 -16.17483,6.42195 z"
     id="rippleL"
     inkscape:label="rippleL" />
</svg>
