<?xml version="1.0" encoding="UTF-8" standalone="no"?>
<!-- Created with Inkscape (http://www.inkscape.org/) -->
<?xml-stylesheet type="text/css" href="../css/main.css"?>
<svg
   xmlns:dc="http://purl.org/dc/elements/1.1/"
   xmlns:cc="http://creativecommons.org/ns#"
   xmlns:rdf="http://www.w3.org/1999/02/22-rdf-syntax-ns#"
   xmlns:svg="http://www.w3.org/2000/svg"
   xmlns="http://www.w3.org/2000/svg"
   xmlns:xlink="http://www.w3.org/1999/xlink"
   xmlns:sodipodi="http://sodipodi.sourceforge.net/DTD/sodipodi-0.dtd"
   xmlns:inkscape="http://www.inkscape.org/namespaces/inkscape"
   id="svg5632"
   version="1.1"
   inkscape:version="0.91 r13725"
   width="207.5"
   height="421.25"
   viewBox="0 0 207.5 421.25"
   sodipodi:docname="tree.svg">
  <metadata
     id="metadata5638">
    <rdf:RDF>
      <cc:Work
         rdf:about="">
        <dc:format>image/svg+xml</dc:format>
        <dc:type
           rdf:resource="http://purl.org/dc/dcmitype/StillImage" />
        <dc:title />
      </cc:Work>
    </rdf:RDF>
  </metadata>
  <defs
     id="defs5636" />
  
  <path
     style="fill:#000000"
     d="m 95.309759,401.51092 c -12.082903,-7.48839 -1.21605,-26.53849 -4.344511,-36.53228 -16.178201,2.74226 -21.202189,27.46832 -39.119935,22.88438 -5.799189,-5.34162 -6.981647,-12.05824 -16.450861,-6.37794 -16.403812,4.2201 -8.243177,-12.83823 0.887591,-16.36626 7.250537,-10.46432 20.72118,-18.77619 19.226279,-30.35826 6.937583,-8.89462 15.977566,-17.13414 23.825439,-24.1843 -12.327031,5.40009 -26.439088,17.81103 -40.18446,9.44956 -8.481747,-14.89164 12.731668,-20.26797 15.860405,-33.4525 9.267546,-10.82662 19.961407,-21.27148 24.495916,-34.89808 -1.188366,-15.11297 -10.726084,12.95138 -20.353874,11.84377 -8.223632,4.06425 -23.749472,10.79439 -19.22459,-5.74293 6.034562,-15.76732 17.227909,-28.97291 23.403481,-44.76589 7.870149,-13.84525 10.752225,-29.47766 11.586217,-45.18202 1.742946,-15.38541 10.493786,-28.85542 13.598967,-43.74313 1.856189,-8.18617 -0.702771,-12.52302 -5.765528,-12.96243 -1.047367,-14.65358 7.192181,-27.976948 8.37579,-41.923786 0.03822,-16.539791 1.277863,-33.34842 4.709982,-49.445995 12.791173,-16.3332161 5.114633,11.785396 5.035563,18.816341 -1.764364,20.3123 -2.125981,41.433009 2.88766,61.37888 5.44499,14.94448 13.51441,29.26797 24.42312,40.80375 6.84515,8.64828 22.55344,29.49538 0.72629,28.16681 -6.53866,-4.76875 -23.94474,-11.98362 -13.24689,1.52163 4.48376,16.03096 19.72678,25.01919 28.63367,38.53121 9.01138,7.81609 23.22044,28.53063 1.62896,28.49296 -13.49458,-4.29603 -19.05395,-19.47079 -30.60346,-27.14545 -16.089041,-11.04842 0.0557,15.22083 1.15531,21.78548 5.87194,16.04238 14.99492,30.86984 20.49107,46.93992 -0.25432,9.54723 21.19547,19.1666 26.17089,30.99736 -6.92467,19.43995 -22.06442,-6.02087 -29.75993,-12.4553 -6.99024,3.59282 11.10449,19.84471 17.12945,24.43522 13.45886,11.44537 33.1166,8.82672 47.89967,17.70926 5.95323,15.21139 -13.6161,11.53746 -20.57945,5.84358 -14.37948,-2.75303 -30.68673,-5.60452 -40.19496,-17.95862 -14.44295,0.21319 2.05652,12.79504 8.37129,15.52325 11.19875,7.29772 25.64905,8.58554 36.11081,16.68545 12.78656,13.02239 -8.7036,17.17376 -16.14084,7.3819 -12.89291,-6.63201 -25.98953,-14.86713 -37.92338,-22.01296 -1.95065,15.0645 3.1932,32.4173 0.80501,48.38508 -9.47342,7.0754 -21.95555,9.49051 -33.546161,7.93234 z"
     id="treeOuter"
     inkscape:label="treeOuter" />
  <path
     id="treeInner"
     style=""
     d="m 104.30619,139.7412 c 6.57427,0.22648 -5.735601,-19.92837 -7.644811,-21.28099 -0.596154,7.45515 -10.591432,26.16592 4.357101,20.44695 l 3.28771,0.83404 z M 111.25,143.75 c -2.99359,-4.99395 -1.99353,4.64868 0,0 z M 67.158104,245.61387 c 11.532101,-7.80969 15.887325,-22.90664 32.291188,-21.01011 3.736938,-6.78555 -4.885737,-18.71951 -4.104328,-28.03362 -8.309549,-9.84645 7.268456,-22.53048 11.176726,-7.1988 1.01806,9.95069 13.08813,5.61322 4.62493,-0.44858 -9.41871,-10.70355 -10.72455,-24.83669 -16.380704,-37.21178 -7.219904,11.22029 -8.185445,30.85546 -15.098525,44.6536 -5.292437,16.62945 -13.496374,32.05276 -22.377784,46.96322 -4.109279,13.32921 3.763022,9.04839 9.868497,2.28607 z M 53.72456,362.72314 c 10.689674,-8.66965 22.631337,-15.22309 30.959614,-26.56474 9.504001,-9.22565 20.928576,-28.52815 34.041486,-12.55019 16.25028,11.26226 4.95922,-11.25095 0.0737,-17.46479 -4.08103,-13.83403 7.8733,-26.91186 -1.71836,-39.50165 -5.60343,-11.20127 -7.61552,-24.6314 -14.51222,-35.39177 -6.104189,11.78955 -11.526335,25.43423 -20.694394,35.83709 -8.75656,13.68247 -20.674729,25.11179 -30.337018,37.89786 2.352796,10.75062 20.386982,-5.909 28.050934,-7.97834 7.507646,-7.08815 15.254704,-30.1937 27.688058,-21.22919 5.18874,10.39596 -10.699841,20.05326 -11.719318,23.85963 5.933058,14.27797 -12.982395,25.74997 -20.410795,36.35128 -8.315218,10.49158 -22.817444,18.44449 -28.317418,29.51717 2.493397,-0.27127 4.925091,-1.22928 6.895721,-2.78236 z"
     inkscape:label="treeInner" />
</svg>
