<?xml version="1.0" encoding="UTF-8" standalone="no"?>
<svg
   xmlns:dc="http://purl.org/dc/elements/1.1/"
   xmlns:cc="http://creativecommons.org/ns#"
   xmlns:rdf="http://www.w3.org/1999/02/22-rdf-syntax-ns#"
   xmlns:svg="http://www.w3.org/2000/svg"
   xmlns="http://www.w3.org/2000/svg"
   xmlns:sodipodi="http://sodipodi.sourceforge.net/DTD/sodipodi-0.dtd"
   xmlns:inkscape="http://www.inkscape.org/namespaces/inkscape"
   viewBox="0 0 533.61135 443.95389"
   height="443.95389"
   width="533.61133"
   version="1.1"
   id="svg4324"
   inkscape:version="0.91 r13725"
   sodipodi:docname="mountain-background.svg">
  <sodipodi:namedview
     pagecolor="#ffffff"
     bordercolor="#666666"
     borderopacity="1"
     objecttolerance="10"
     gridtolerance="10"
     guidetolerance="10"
     inkscape:pageopacity="0"
     inkscape:pageshadow="2"
     inkscape:window-width="691"
     inkscape:window-height="480"
     id="namedview7"
     showgrid="false"
     fit-margin-top="0"
     fit-margin-left="0"
     fit-margin-right="0"
     fit-margin-bottom="0"
     inkscape:zoom="0.10106502"
     inkscape:cx="1151.8482"
     inkscape:cy="191.79512"
     inkscape:window-x="0"
     inkscape:window-y="0"
     inkscape:window-maximized="0"
     inkscape:current-layer="svg4324" />
  <metadata
     id="metadata4330">
    <rdf:RDF>
      <cc:Work
         rdf:about="">
        <dc:format>image/svg+xml</dc:format>
        <dc:type
           rdf:resource="http://purl.org/dc/dcmitype/StillImage" />
        <dc:title></dc:title>
      </cc:Work>
    </rdf:RDF>
  </metadata>
  <defs
     id="defs4328" />
  <g
     transform="matrix(1.4779215,0,0,1.4779215,-71.077526,-75.865498)"
     id="g4274">
    <path
       d="M 400.83334,351.66666 C 375.36711,351.16144 79.931495,348.30918 53.254336,339.35885 48.40071,339.27305 45.956799,329.1555 50.492417,322.82003 62.294171,301.3887 71.569991,279.11677 81.587138,256.84661 c 5.610118,-16.64648 9.878546,-33.65247 17.747376,-49.33903 4.977126,-14.02214 13.176676,-25.72787 16.454036,-39.90517 7.65504,-14.6537 15.4683,-32.56333 28.69062,-41.82932 16.29912,1.98618 29.44486,16.97087 45.2023,23.38209 18.68558,1.01765 22.98984,-24.63946 35.19208,-35.33344 13.4263,-14.691807 24.47311,-31.209019 34.03842,-48.621456 5.90709,-11.136636 19.17382,-22.331422 25.03469,-4.575514 12.32161,16.327589 22.06138,34.524838 30.7086,53.06933 5.32344,14.24595 13.284,27.80979 19.77092,41.39193 6.31554,14.42639 11.57783,29.74243 20.0757,42.778 11.43648,25.19209 19.97955,51.85934 31.74812,76.76277 4.72973,17.07987 11.96915,33.37929 19.28366,49.51886 4.80485,9.70575 6.22618,28.75109 -4.70032,27.52077 z"
       id="mountain-background"/>
  </g>
</svg>
