<?xml version="1.0" encoding="UTF-8" standalone="no"?>
<!-- Created with Inkscape (http://www.inkscape.org/) -->

<?xml-stylesheet type="text/css" href="../css/main.css"?><svg
   xmlns:dc="http://purl.org/dc/elements/1.1/"
   xmlns:cc="http://creativecommons.org/ns#"
   xmlns:rdf="http://www.w3.org/1999/02/22-rdf-syntax-ns#"
   xmlns:svg="http://www.w3.org/2000/svg"
   xmlns="http://www.w3.org/2000/svg"
   xmlns:sodipodi="http://sodipodi.sourceforge.net/DTD/sodipodi-0.dtd"
   xmlns:inkscape="http://www.inkscape.org/namespaces/inkscape"
   id="svg4324"
   version="1.1"
   width="2333.1968"
   height="1841.7701"
   viewBox="0 0 2333.1969 1841.7702"
   inkscape:version="0.91 r13725"
   sodipodi:docname="route-sketch.svg">
  <metadata
     id="metadata31">
    <rdf:RDF>
      <cc:Work
         rdf:about="">
        <dc:format>image/svg+xml</dc:format>
        <dc:type
           rdf:resource="http://purl.org/dc/dcmitype/StillImage" />
      </cc:Work>
    </rdf:RDF>
  </metadata>
  <defs
     id="defs29" />
  <sodipodi:namedview
     pagecolor="#ffffff"
     bordercolor="#666666"
     borderopacity="1"
     objecttolerance="10"
     gridtolerance="10"
     guidetolerance="10"
     inkscape:pageopacity="0"
     inkscape:pageshadow="2"
     inkscape:window-width="1440"
     inkscape:window-height="863"
     id="namedview27"
     showgrid="false"
     inkscape:zoom="0.3588617"
     inkscape:cx="1166.5983"
     inkscape:cy="921.30265"
     inkscape:window-x="4"
     inkscape:window-y="0"
     inkscape:window-maximized="0"
     inkscape:current-layer="svg4324" />
  <path
     d="m 1140.4537,215.91999 c 0,0 15.2469,39.89169 12.5833,60.01972 -0.794,6.00099 -6.1456,11.32021 -8.3887,17.14849 -11.1987,29.0977 -29.2038,58.64495 -25.1667,88.60054 3.8463,28.54001 29.0267,53.84527 46.1387,80.02627 10.1753,15.56818 31.7825,28.72983 33.5554,45.72924 1.5671,15.02559 -13.0383,28.81133 -20.9721,42.87123 -8.7633,15.52967 -22.7898,29.70509 -29.3609,45.72932 -11.3881,27.76993 -13.9754,56.97198 -16.7777,85.74242 -1.1112,11.4072 5.8209,23.57484 0,34.29701 -8.9445,16.47561 -32.8169,27.12395 -50.3332,40.01313 -13.4347,9.88554 -32.6145,16.70184 -41.9445,28.58085 -10.0918,12.84899 -3.3561,29.72383 -12.5832,42.8712 -9.422,13.42537 -29.84574,21.90753 -41.94434,34.29691 -21.82496,22.3494 -43.27739,45.72486 -54.52757,71.45211 -8.0251,18.35151 -5.91291,38.08721 -8.38899,57.16151 -3.21222,24.74656 -6.98966,49.48516 -8.38879,74.31006 -0.75117,13.3279 6.18978,27.36 0,40.0131 -4.42132,9.0381 -16.60403,15.3335 -25.16657,22.8648 -10.96541,9.6447 -27.20858,17.1726 -33.55542,28.5807 -9.9245,17.839 -2.67327,38.1122 -4.19442,57.1617 -2.58713,32.3997 3.28569,65.7175 -8.38882,97.1748 -5.67402,15.2886 -15.23842,30.3777 -29.36105,42.8711 -13.32715,11.7897 -32.98318,19.5423 -50.33321,28.5809 -27.11621,14.1261 -52.59693,30.7226 -83.88861,40.0131 -18.35205,5.4487 -38.94484,6.4632 -58.72203,8.5744 -27.76383,2.9632 -56.52139,1.365 -83.88866,5.716 -23.2666,3.6991 -44.79186,11.3401 -67.11091,17.1485 -25.22544,6.5648 -48.7995,17.2609 -75.49977,20.0066 -19.40414,1.9954 -39.56789,0.051 -58.72202,-2.8582 -19.00777,-2.8859 -40.50029,-5.086 -54.52764,-14.2903 -7.66988,-5.0328 -10.44235,-12.8993 -12.58328,-20.0066 -1.12448,-3.733 0,-11.4324 0,-11.4324"
     id="mountain-route"
     inkscape:connector-curvature="0"
     style="stroke:#000000;stroke-opacity:1;fill:none" />
  <path
     id="tree-route"
     d="m 1140.9364,217.7233 c 0,0 15.2469,39.89165 12.5834,60.0197 -0.7942,6.00104 -6.1458,11.3202 -8.3888,17.14849 -11.1986,29.0977 -29.2039,58.64495 -25.1667,88.60051 3.8462,28.54003 29.0268,53.84529 46.1389,80.0263 10.1752,15.56817 31.7824,28.72983 33.5554,45.72924 1.5669,15.02557 -13.0386,28.81133 -20.9723,42.87122 -8.7633,15.52968 -22.7897,29.70509 -29.361,45.72932 -11.3881,27.76995 -13.9753,56.97198 -16.7777,85.74244 -1.1111,11.4072 5.8209,23.57483 0,34.29691 -5.8209,10.72224 48.6505,45.43311 62.9164,71.45211 8.447,15.40595 -3.5763,36.37163 12.5834,48.58736 20.4449,15.45511 62.2313,6.07436 88.083,17.14853 28.5066,12.21122 45.0492,34.11236 67.1109,51.44546 15.6,12.25632 29.6403,25.45775 46.1386,37.15504 15.7713,11.18181 33.8936,20.71341 50.3333,31.43891 11.4255,7.454 25.1521,13.7328 33.5554,22.8646 18.0873,19.65516 24.7248,43.33016 33.5556,65.73576 9.6009,24.3609 11.0453,50.01 20.972,74.31 7.592,18.5842 20.6718,35.9443 29.3611,54.3036 8.017,16.9389 10.6642,35.0923 20.9721,51.4455 9.6522,15.3128 33.7408,26.4313 37.75,42.8714 3.2813,13.4558 -7.313,26.8537 -12.5835,40.0131 -5.8201,14.532 -18.4706,27.9043 -20.9718,42.8712 -3.3375,19.9679 6.9888,39.9452 8.3886,60.0196 1.3271,19.0324 1.669,38.1417 0,57.1616 -2.1009,23.9454 -6.8543,47.7836 -12.5833,71.4521 -4.4176,18.2513 -13.9663,35.905 -16.7777,54.3034 -1.4479,9.4758 2.7133,19.2351 0,28.5809 -4.9882,17.1821 -14.1482,34.4692 -29.361,48.5874 -12.9256,11.9955 -32.2386,20.2478 -50.3332,28.5809 -17.1035,7.8766 -38.6724,10.9986 -54.5275,20.0065 -13.7521,7.8129 -21.6143,19.4901 -33.5554,28.5808 -17.1429,13.051 -33.905,26.6998 -54.5277,37.1551 -16.562,8.3966 -35.5776,14.4273 -54.5277,20.0065 -20.2932,5.9747 -41.2018,11.4658 -62.9164,14.2905 -24.7583,3.2204 -50.3179,3.5997 -75.4996,2.8581 -19.7546,-0.5818 -40.4546,-0.5602 -58.7223,-5.7163 -12.9171,-3.6457 -25.1717,-9.5243 -33.5553,-17.1485 -7.163,-6.514 -12.5835,-22.8647 -12.5835,-22.8647"
     inkscape:connector-curvature="0"
     style="fill:none;fill-opacity:1;stroke:#000000;stroke-opacity:1" />
  <path
     id="pond-route"
     d="m 1140.9364,217.7233 c 0,0 14.3123,46.95515 12.5834,60.0197 -1.7289,13.06455 -1.668,-0.31451 -8.3888,17.14849 -6.7208,17.463 -29.1084,59.35271 -25.1667,88.60051 3.9417,29.2478 32.4952,59.15171 46.1389,80.0263 13.6437,20.87459 31.8854,29.71675 33.5554,45.72924 1.67,16.01249 -12.6238,28.07643 -20.9723,42.87122 -8.3485,14.79479 -20.3813,23.83223 -29.361,45.72932 -8.9797,21.89709 -14.8209,65.65361 -16.7777,85.74244 -1.9568,20.08883 5.8209,23.57475 0,34.29691 -5.8209,10.72216 51.5599,50.73963 62.9164,71.45211 11.3565,20.71248 -5.7189,34.75194 12.5834,48.58736 18.3023,13.83542 60.9038,5.50583 88.083,17.14853 27.1792,11.6427 48.28,36.65075 67.1109,51.44546 18.8309,14.79471 30.0038,25.71549 46.1386,37.15504 16.1348,11.43955 36.4007,22.34916 50.3333,31.43891 13.9326,9.08975 38.7914,19.01325 52.4306,24.2937 13.6392,5.28046 54.7362,23.73386 69.2079,38.58406 14.4717,14.8502 10.2304,28.5221 20.9724,40.013 10.742,11.4909 26.5646,17.5539 41.9442,25.7228 15.3796,8.1689 39.0262,11.5323 50.3332,22.8647 11.307,11.3324 10.4292,25.7039 16.7777,37.155 6.3485,11.4511 9.7973,21.6121 20.972,31.4389 11.1747,9.8268 25.8144,16.4619 46.1387,22.8646 20.3243,6.4027 53.83,8.0879 75.4998,11.4323 21.6698,3.3444 27.2844,5.3662 54.5277,8.5743 27.2433,3.2081 80.3303,8.0994 109.0552,8.5743 28.7249,0.4749 45.835,2.3321 62.9164,-2.8582 17.0814,-5.1903 28.0722,-15.4583 37.7499,-22.8645 9.6777,-7.4062 17.5714,-12.0625 20.9722,-20.0067 3.4008,-7.9442 0,-22.8646 0,-22.8646"
     inkscape:connector-curvature="0"
     sodipodi:nodetypes="czzzzzzzzzzzzzzzzzzzzzzzzzzzzzc"
     style="fill:none;stroke:#000000;stroke-opacity:1" />
  <g
     id="g4274"
     transform="matrix(1.4779215,0,0,1.4779215,-65.386174,784.29335)">
    <path
       id="mountain"
       d="m 400.83334,351.66666 c -2.78933,-19.69878 -16.67199,-35.58797 -21.3841,-54.79166 -6.50457,-17.35545 -12.54411,-34.77167 -20.44919,-51.52627 -5.13766,-14.688 -10.60141,-29.33643 -18.58937,-42.66432 -3.60388,-13.36617 -12.16266,-25.80486 -16.82512,-39.50647 -4.01126,-11.72386 -9.68439,-19.95908 -15.54621,-4.22218 -11.06811,20.30815 -30.39614,-3.63675 -45.53306,7.98613 -15.27269,4.15984 -30.40792,2.16919 -45.65708,-0.004 -19.69536,3.09946 -22.9605,20.86134 -29.68292,36.52588 -2.62228,12.10822 -21.04414,13.08096 -17.21018,-1.64187 -0.11394,-8.06228 21.33552,-26.59797 0.21372,-20.1422 -13.06117,-6.41729 -27.8562,10.86564 -42.1815,2.03512 -8.31433,0.7052 -9.38138,18.67243 -14.18037,25.80422 -12.71421,26.90814 -18.617952,56.79 -33.291796,82.98073 -6.53411,16.84472 -14.384889,34.46507 -27.261828,46.85908 -11.973607,14.15418 -11.09486,-10.67802 -2.761919,-16.53882 11.801754,-21.43133 21.077574,-43.70326 31.094721,-65.97342 5.610118,-16.64648 9.878546,-33.65247 17.747376,-49.33903 4.977126,-14.02214 13.176676,-25.72787 16.454036,-39.90517 7.65504,-14.6537 15.4683,-32.56333 28.69062,-41.82932 16.29912,1.98618 29.44486,16.97087 45.2023,23.38209 18.68558,1.01765 22.98984,-24.63946 35.19208,-35.33344 13.4263,-14.691807 24.47311,-31.209019 34.03842,-48.621456 5.90709,-11.136636 19.17382,-22.331422 25.03469,-4.575514 12.32161,16.327589 22.06138,34.524838 30.7086,53.06933 5.32344,14.24595 13.284,27.80979 19.77092,41.39193 6.31554,14.42639 11.57783,29.74243 20.0757,42.778 11.43648,25.19209 19.97955,51.85934 31.74812,76.76277 4.72973,17.07987 11.96915,33.37929 19.28366,49.51886 7.65284,9.70575 19.51681,32.07375 -4.70032,27.52077 z" />
    <path
       id="snowL"
       d="m 149.59524,166.24137 c 6.34897,-7.26117 37.03293,4.22686 21.03336,-10.31835 -12.66353,-8.02184 -30.04424,-17.01459 -35.02779,3.91435 -8.43853,9.39128 -3.97819,13.40509 7.86317,8.50289 2.07407,-0.60613 4.12414,-1.29752 6.13126,-2.09889 z" />
    <path
       id="snowR"
       d="m 245.55781,152.8125 c 6.40901,-7.63456 13.39081,-10.06395 22.11445,-6.34297 10.56403,-10.37949 25.53479,18.09541 33.46294,-3.00513 13.85737,-14.77667 -5.23841,-25.51292 -7.40582,-40.48579 -5.86832,-9.4448 -15.20712,-27.226172 -25.39044,-26.656981 -8.07283,12.667001 -16.07273,25.920291 -25.62999,37.894501 -8.11469,11.43085 -26.62439,25.99731 -23.40096,39.42 9.39606,-5.98693 17.55485,8.01923 26.24982,-0.82363 z" />
    <path
       d="M 400.83334,351.66666 C 375.36711,351.16144 79.931495,348.30918 53.254336,339.35885 48.40071,339.27305 45.956799,329.1555 50.492417,322.82003 62.294171,301.3887 71.569991,279.11677 81.587138,256.84661 c 5.610118,-16.64648 9.878546,-33.65247 17.747376,-49.33903 4.977126,-14.02214 13.176676,-25.72787 16.454036,-39.90517 7.65504,-14.6537 15.4683,-32.56333 28.69062,-41.82932 16.29912,1.98618 29.44486,16.97087 45.2023,23.38209 18.68558,1.01765 22.98984,-24.63946 35.19208,-35.33344 13.4263,-14.691807 24.47311,-31.209019 34.03842,-48.621456 5.90709,-11.136636 19.17382,-22.331422 25.03469,-4.575514 12.32161,16.327589 22.06138,34.524838 30.7086,53.06933 5.32344,14.24595 13.284,27.80979 19.77092,41.39193 6.31554,14.42639 11.57783,29.74243 20.0757,42.778 11.43648,25.19209 19.97955,51.85934 31.74812,76.76277 4.72973,17.07987 11.96915,33.37929 19.28366,49.51886 4.80485,9.70575 6.22618,28.75109 -4.70032,27.52077 z"
       id="mountain-background" />
  </g>
  <g
     id="g4288"
     transform="matrix(1.0855497,0,0,1.0855497,1865.1503,745.7689)">
    <path
       id="pondOuter"
       d="m 215.625,311.6244 c -19.74362,-1.73827 -38.05192,-9.25694 -55.74071,-17.60467 -15.48784,-7.13167 -31.13719,-6.14824 -47.52529,-3.03644 -16.882566,-0.34952 -34.059584,-2.1135 -49.301834,-9.9509 C 46.821405,275.9551 25.091173,266.62054 27.022287,246.25 26.00259,222.02898 44.459718,203.93977 62.489786,190.625 59.092006,179.59037 58.872453,166.51698 51.752719,157.5 c -3.043375,7.25017 -24.832131,22.44468 -19.381511,4.80896 5.691438,-9.49678 8.678212,-24.59994 21.277077,-23.91267 -5.472755,-8.91967 -3.050441,-35.1264 10.709137,-20.30155 4.928859,13.77671 0.904719,32.70792 6.919113,48.15526 0.39995,9.11296 1.129992,30.59131 13.708517,18.75 16.184798,-2.17138 40.036648,-10.59991 28.189728,-31.30133 -2.50407,-21.85918 -9.74619,-43.21067 -9.98506,-65.22959 11.26635,-14.743881 12.94806,10.286784 16.90037,14.17004 9.41735,-15.261184 18.47957,6.60431 23.43955,11.31278 -17.347,1.14645 -23.96291,15.07706 -18.48393,31.68804 -1.0393,19.9738 21.57695,-3.88163 29.87731,-7.76462 13.74456,-6.83388 29.87535,-13.95418 46.45316,-8.9107 14.01669,4.29649 -1.12588,-11.55141 5.83497,-18.60585 3.55991,-17.931354 -7.65565,-27.350673 -22.21953,-30.993859 -6.61077,-13.869491 8.52311,-18.937782 15.72275,-15.086274 0.69122,-12.201348 -14.91364,-39.05552 4.10878,-40.175247 8.21832,12.887502 4.75339,31.001214 10.9256,45.362277 2.24859,17.149488 5.60121,35.930843 3.54747,52.462953 -16.4359,13.81419 17.11563,5.9687 24.69762,6.92616 18.69766,-1.74706 37.00054,0.51759 54.38724,7.54908 8.42576,2.8777 22.69328,13.05257 15.56243,-3.27946 -12.44849,-5.26031 -6.80328,-20.67405 -3.55639,-30.42938 -8.79306,-15.321322 -8.07919,-33.139756 -5.75792,-50.394098 9.15365,-9.454773 1.72383,-28.71954 13.00322,-34.672535 16.14904,10.708781 3.2799,32.699634 6.49251,48.61776 17.19905,0.112195 4.41744,25.932278 -1.09462,31.299079 4.24616,15.775924 6.55651,33.263704 3.79427,49.353984 12.54302,12.60738 31.42966,4.82191 46.26526,13.33821 11.12135,-1.5071 34.27362,18.35541 29.6307,-3.73733 1.03986,-9.01758 5.03216,-23.50173 -6.63976,-11.21876 -20.21943,4.78477 -4.05431,-35.14182 7.31329,-26.89849 12.13566,-0.31018 17.10692,14.3417 24.59651,19.78077 -14.00831,4.44052 -13.287,29.30304 -7.99058,38.71142 12.36788,7.62489 12.54296,22.73355 9.57055,35.80838 -0.29896,17.90621 -3.50671,38.57099 -22.65637,45.47654 -15.36975,9.29164 -28.85911,22.15731 -45.37131,30.43909 -16.35252,8.64169 -34.12902,11.78672 -52.15721,14.32929 -30.59602,7.09088 -62.30392,12.48281 -93.76066,8.69607 z"
       style="fill:#000000" />
    <path
       id="pondInner"
       d="m 243.75,298.51787 c 19.58205,1.03774 38.94126,-2.54107 57.62849,-7.80059 17.30394,-3.47892 34.85106,-5.26344 50.97181,-13.1142 19.85234,-9.56544 38.90659,-21.57867 54.83432,-36.79279 6.14864,-13.53756 12.51673,-34.70026 5.45945,-47.84506 -14.46577,-13.29604 -34.52025,-17.1399 -52.67307,-22.97211 -19.9448,-4.26683 -41.14522,-5.86197 -58.31381,-18.02243 -16.6074,-8.10075 -34.81292,-14.25696 -53.43651,-11.16847 -14.17913,-4.30158 -30.33656,5.09075 -46.34054,1.04243 -17.90096,-1.11076 -38.54263,-2.08772 -48.6553,15.89571 -14.18459,8.12116 -20.18928,22.19948 -32.09823,31.90747 -14.38504,9.67363 -33.008696,9.01424 -47.900153,18.04636 -16.299853,4.52014 -29.730074,20.56588 -31.5474,37.3769 1.548848,18.09746 24.990894,20.91314 38.486795,27.89706 18.11827,3.14874 36.532488,5.4804 54.768568,1.85548 19.83547,1.08112 38.98198,7.76695 56.02261,17.77373 15.17459,3.86114 29.98004,8.06981 46.1478,6.13931 2.21499,-0.0747 4.42994,-0.15292 6.64517,-0.2188 z" />
    <path
       id="rippleR"
       d="m 280,242.5 c -8.11087,-7.32015 -16.59306,-8.0787 -24.49718,-1.77692 -1.14987,-4.05312 -16.21032,3.27754 -7.94575,-7.03527 7.82049,-12.31143 19.25765,-25.01803 29.58196,-6.8403 10.64868,6.7378 24.55761,-2.98682 32.52913,-10.7663 8.87853,1.54985 23.43837,14.18523 8.14276,16.58519 C 303.93633,227.2824 294.24667,253.00268 280,242.5 Z"
       style="fill:#000000" />
    <path
       id="rippleL"
       d="m 117.80123,236.56651 c -11.74261,-12.6925 20.07854,-28.28497 29.56231,-17.66341 13.37107,-2.49181 36.22059,-10.23275 42.14078,7.63141 -7.93466,7.99185 -26.65573,-2.66983 -36.61051,9.36382 -2.09621,-5.0341 -13.22992,-7.76226 -18.91775,-5.75377 15.24754,10.40215 -12.10341,10.90418 -16.17483,6.42195 z"
       style="fill:#000000" />
  </g>
  <g
     id="g4301"
     transform="matrix(1.4385211,0,0,1.4385211,908.55737,1126.3615)">
    <path
       id="treeOuter"
       d="m 95.309759,401.51092 c -12.082903,-7.48839 -1.21605,-26.53849 -4.344511,-36.53228 -16.178201,2.74226 -21.202189,27.46832 -39.119935,22.88438 -5.799189,-5.34162 -6.981647,-12.05824 -16.450861,-6.37794 -16.403812,4.2201 -8.243177,-12.83823 0.887591,-16.36626 7.250537,-10.46432 20.72118,-18.77619 19.226279,-30.35826 6.937583,-8.89462 15.977566,-17.13414 23.825439,-24.1843 -12.327031,5.40009 -26.439088,17.81103 -40.18446,9.44956 -8.481747,-14.89164 12.731668,-20.26797 15.860405,-33.4525 9.267546,-10.82662 19.961407,-21.27148 24.495916,-34.89808 -1.188366,-15.11297 -10.726084,12.95138 -20.353874,11.84377 -8.223632,4.06425 -23.749472,10.79439 -19.22459,-5.74293 6.034562,-15.76732 17.227909,-28.97291 23.403481,-44.76589 7.870149,-13.84525 10.752225,-29.47766 11.586217,-45.18202 1.742946,-15.38541 10.493786,-28.85542 13.598967,-43.74313 1.856189,-8.18617 -0.702771,-12.52302 -5.765528,-12.96243 -1.047367,-14.65358 7.192181,-27.976948 8.37579,-41.923786 0.03822,-16.539791 1.277863,-33.34842 4.709982,-49.445995 12.791173,-16.3332161 5.114633,11.785396 5.035563,18.816341 -1.764364,20.3123 -2.125981,41.433009 2.88766,61.37888 5.44499,14.94448 13.51441,29.26797 24.42312,40.80375 6.84515,8.64828 22.55344,29.49538 0.72629,28.16681 -6.53866,-4.76875 -23.94474,-11.98362 -13.24689,1.52163 4.48376,16.03096 19.72678,25.01919 28.63367,38.53121 9.01138,7.81609 23.22044,28.53063 1.62896,28.49296 -13.49458,-4.29603 -19.05395,-19.47079 -30.60346,-27.14545 -16.089041,-11.04842 0.0557,15.22083 1.15531,21.78548 5.87194,16.04238 14.99492,30.86984 20.49107,46.93992 -0.25432,9.54723 21.19547,19.1666 26.17089,30.99736 -6.92467,19.43995 -22.06442,-6.02087 -29.75993,-12.4553 -6.99024,3.59282 11.10449,19.84471 17.12945,24.43522 13.45886,11.44537 33.1166,8.82672 47.89967,17.70926 5.95323,15.21139 -13.6161,11.53746 -20.57945,5.84358 -14.37948,-2.75303 -30.68673,-5.60452 -40.19496,-17.95862 -14.44295,0.21319 2.05652,12.79504 8.37129,15.52325 11.19875,7.29772 25.64905,8.58554 36.11081,16.68545 12.78656,13.02239 -8.7036,17.17376 -16.14084,7.3819 -12.89291,-6.63201 -25.98953,-14.86713 -37.92338,-22.01296 -1.95065,15.0645 3.1932,32.4173 0.80501,48.38508 -9.47342,7.0754 -21.95555,9.49051 -33.546161,7.93234 z"
       style="fill:#000000" />
    <path
       d="m 104.30619,139.7412 c 6.57427,0.22648 -5.735601,-19.92837 -7.644811,-21.28099 -0.596154,7.45515 -10.591432,26.16592 4.357101,20.44695 l 3.28771,0.83404 z M 111.25,143.75 c -2.99359,-4.99395 -1.99353,4.64868 0,0 z M 67.158104,245.61387 c 11.532101,-7.80969 15.887325,-22.90664 32.291188,-21.01011 3.736938,-6.78555 -4.885737,-18.71951 -4.104328,-28.03362 -8.309549,-9.84645 7.268456,-22.53048 11.176726,-7.1988 1.01806,9.95069 13.08813,5.61322 4.62493,-0.44858 -9.41871,-10.70355 -10.72455,-24.83669 -16.380704,-37.21178 -7.219904,11.22029 -8.185445,30.85546 -15.098525,44.6536 -5.292437,16.62945 -13.496374,32.05276 -22.377784,46.96322 -4.109279,13.32921 3.763022,9.04839 9.868497,2.28607 z M 53.72456,362.72314 c 10.689674,-8.66965 22.631337,-15.22309 30.959614,-26.56474 9.504001,-9.22565 20.928576,-28.52815 34.041486,-12.55019 16.25028,11.26226 4.95922,-11.25095 0.0737,-17.46479 -4.08103,-13.83403 7.8733,-26.91186 -1.71836,-39.50165 -5.60343,-11.20127 -7.61552,-24.6314 -14.51222,-35.39177 -6.104189,11.78955 -11.526335,25.43423 -20.694394,35.83709 -8.75656,13.68247 -20.674729,25.11179 -30.337018,37.89786 2.352796,10.75062 20.386982,-5.909 28.050934,-7.97834 7.507646,-7.08815 15.254704,-30.1937 27.688058,-21.22919 5.18874,10.39596 -10.699841,20.05326 -11.719318,23.85963 5.933058,14.27797 -12.982395,25.74997 -20.410795,36.35128 -8.315218,10.49158 -22.817444,18.44449 -28.317418,29.51717 2.493397,-0.27127 4.925091,-1.22928 6.895721,-2.78236 z"
       id="treeInner" />
  </g>
  <path
     style="fill:#000000"
     d="m 557.37916,1665.7314 c -3.91494,0.8627 -8.54098,-2.0977 -6.43254,-6.4541 0.4815,-4.7082 5.66341,-4.5024 9.18691,-5.0167 2.22997,-0.4571 9.88045,-0.2696 6.19457,-3.87 -3.17848,-1.4814 -3.57536,-5.0733 -5.55967,-7.586 -3.26986,-2.1833 -5.49158,-6.6052 -2.40786,-10.0135 2.28341,-4.7868 5.47324,0.4806 8.44824,1.6328 3.15275,1.1583 5.88452,4.9607 9.31914,4.3397 2.80208,-4.2767 1.74684,-9.7529 1.23763,-14.5542 -0.78502,-5.4895 -0.58288,-11.1015 -1.76863,-16.5323 0.33217,-4.0662 -0.62231,-8.5126 1.86726,-12.0962 1.53989,-4.3132 7.24266,-1.6607 8.77727,1.2472 2.24202,3.7411 -0.92685,7.5936 -0.30265,11.5219 0.19088,4.277 1.53965,8.3895 1.96699,12.6368 -1.19323,3.5086 3.28979,6.823 5.08046,8.0904 4.47388,-2.7059 4.48262,-9.9399 10.09022,-11.1286 3.86204,-0.4146 7.88505,3.4699 8.15764,6.9671 -2.10254,4.3091 -5.59281,7.8718 -6.78683,12.6058 0.47229,3.4339 4.86353,-0.052 7.10562,0.307 2.97391,-0.2011 6.27928,-0.5888 9.00602,0.7858 3.64117,2.9851 0.76652,8.169 -3.03396,9.3364 -2.51327,1.1095 -8.24351,3.4123 -3.79206,5.6222 2.01965,0.9891 4.753,2.229 5.81077,4.8517 -1.53273,2.6106 -5.23341,2.4008 -7.91693,2.8251 -14.65322,0.8495 -29.40979,0.5692 -43.96895,2.6235 -3.30143,0.4907 -6.51668,1.804 -9.81606,2.0392 -0.15397,-0.061 -0.30919,-0.1208 -0.4626,-0.181 z"
     id="grass" />
  <path
     id="grass2"
     d="m 1619.0088,904.04133 c -3.915,0.86263 -8.541,-2.09774 -6.4325,-6.4541 0.4814,-4.70822 5.6634,-4.50246 9.1868,-5.01678 2.23,-0.45702 9.8805,-0.26951 6.1946,-3.86999 -3.1784,-1.4814 -3.5753,-5.07329 -5.5597,-7.58601 -3.2698,-2.18322 -5.4915,-6.60515 -2.4078,-10.01356 2.2834,-4.7867 5.4732,0.4807 8.4482,1.63284 3.1528,1.15837 5.8846,4.96066 9.3192,4.33977 2.802,-4.27672 1.7468,-9.75294 1.2376,-14.55421 -0.785,-5.48953 -0.5828,-11.10146 -1.7686,-16.53236 0.3321,-4.06614 -0.6223,-8.51256 1.8672,-12.09621 1.54,-4.31322 7.2427,-1.66063 8.7773,1.24726 2.242,3.74113 -0.9268,7.59356 -0.3027,11.52188 0.1909,4.27694 1.5397,8.38953 1.967,12.6368 -1.1932,3.50861 3.2898,6.82303 5.0805,8.09041 4.4739,-2.70588 4.4827,-9.93988 10.0903,-11.12863 3.862,-0.41459 7.885,3.46996 8.1576,6.96708 -2.1026,4.30914 -5.5929,7.8719 -6.7869,12.60586 0.4723,3.43384 4.8636,-0.052 7.1057,0.30707 2.9738,-0.2012 6.2792,-0.58887 9.006,0.78572 3.6411,2.98508 0.7665,8.16898 -3.034,9.33646 -2.5132,1.10948 -8.2435,3.41219 -3.792,5.62209 2.0196,0.98913 4.753,2.22903 5.8107,4.85172 -1.5328,2.61063 -5.2334,2.40079 -7.9169,2.82513 -14.6532,0.84949 -29.4098,0.56919 -43.969,2.62347 -3.3014,0.49079 -6.5166,1.80405 -9.816,2.03926 -0.154,-0.0606 -0.3092,-0.12092 -0.4626,-0.18097 z"
     style="fill:#000000" />
  <path
     style="fill:#000000"
     d="m 695.71008,933.03864 c -3.91494,0.86263 -8.54098,-2.09774 -6.43253,-6.4541 0.48149,-4.70822 5.66341,-4.50246 9.1869,-5.01678 2.22997,-0.45702 9.88045,-0.26952 6.19457,-3.86999 -3.17848,-1.4814 -3.57536,-5.0733 -5.55966,-7.58602 -3.26987,-2.18321 -5.49159,-6.60515 -2.40788,-10.01355 2.28343,-4.7867 5.47325,0.4807 8.44826,1.63285 3.15274,1.15836 5.88452,4.96065 9.31914,4.33975 2.80207,-4.2767 1.74683,-9.75294 1.23763,-14.5542 -0.78502,-5.48953 -0.58289,-11.10147 -1.76863,-16.53236 0.33217,-4.06614 -0.62232,-8.51256 1.86725,-12.09619 1.53989,-4.31322 7.24266,-1.66063 8.77727,1.24724 2.24202,3.74113 -0.92685,7.59356 -0.30265,11.52188 0.19088,4.27694 1.53965,8.38953 1.96699,12.63679 -1.19322,3.50861 3.28979,6.82304 5.08046,8.09042 4.47388,-2.70588 4.48262,-9.93989 10.09023,-11.12863 3.86204,-0.41459 7.88504,3.46996 8.15763,6.96708 -2.10253,4.30914 -5.59281,7.87191 -6.78682,12.60586 0.47228,3.43384 4.86352,-0.052 7.10561,0.30706 2.97391,-0.20119 6.27928,-0.58886 9.00602,0.78573 3.64117,2.98508 0.76652,8.16897 -3.03396,9.33646 -2.51327,1.10948 -8.24352,3.41219 -3.79206,5.62209 2.01965,0.98913 4.753,2.22903 5.81077,4.85171 -1.53272,2.61064 -5.23341,2.40079 -7.91693,2.82514 -14.65322,0.84949 -29.40979,0.56918 -43.96895,2.62347 -3.30143,0.49079 -6.51667,1.80405 -9.81606,2.03925 -0.15396,-0.0606 -0.30919,-0.1209 -0.4626,-0.18096 z"
     id="grass3" />
  <path
     id="grass4"
     d="m 1798.2365,1520.9826 c -3.915,0.8627 -8.541,-2.0977 -6.4326,-6.4541 0.4815,-4.7082 5.6635,-4.5024 9.1869,-5.0168 2.23,-0.457 9.8804,-0.2695 6.1946,-3.8699 -3.1785,-1.4814 -3.5754,-5.0733 -5.5597,-7.586 -3.2698,-2.1833 -5.4916,-6.6052 -2.4079,-10.0136 2.2834,-4.7866 5.4733,0.4808 8.4483,1.6329 3.1527,1.1583 5.8845,4.9606 9.3191,4.3397 2.8021,-4.2767 1.7469,-9.7529 1.2377,-14.5542 -0.785,-5.4895 -0.583,-11.1015 -1.7686,-16.5323 0.3321,-4.0662 -0.6224,-8.5126 1.8672,-12.0963 1.5398,-4.3131 7.2427,-1.6606 8.7772,1.2473 2.2421,3.7411 -0.9268,7.5936 -0.3026,11.5219 0.1909,4.277 1.5397,8.3895 1.967,12.6367 -1.1933,3.5087 3.2898,6.8231 5.0805,8.0905 4.4739,-2.7059 4.4825,-9.9399 10.0902,-11.1286 3.8621,-0.4146 7.885,3.4699 8.1576,6.9671 -2.1025,4.3091 -5.5928,7.8718 -6.7868,12.6058 0.4723,3.4338 4.8636,-0.052 7.1056,0.3071 2.9739,-0.2012 6.2793,-0.5889 9.006,0.7857 3.6412,2.9851 0.7666,8.1689 -3.0339,9.3364 -2.5133,1.1095 -8.2435,3.4122 -3.7921,5.6221 2.0197,0.9892 4.753,2.2291 5.8108,4.8517 -1.5328,2.6107 -5.2334,2.4009 -7.917,2.8252 -14.6532,0.8495 -29.4098,0.5692 -43.9689,2.6235 -3.3015,0.4907 -6.5167,1.804 -9.816,2.0392 -0.154,-0.061 -0.3092,-0.1209 -0.4626,-0.181 z"
     style="fill:#000000" />
  <path
     id="grass5"
     d="m 1278.8835,1166.1276 c -3.9149,0.8626 -8.5409,-2.0977 -6.4325,-6.4541 0.4815,-4.7082 5.6634,-4.5024 9.1869,-5.0168 2.23,-0.457 9.8804,-0.2695 6.1946,-3.8699 -3.1785,-1.4815 -3.5754,-5.0733 -5.5597,-7.5861 -3.2698,-2.1832 -5.4916,-6.6051 -2.4079,-10.0136 2.2834,-4.7867 5.4733,0.4807 8.4483,1.6329 3.1527,1.1584 5.8845,4.9606 9.3191,4.3397 2.8021,-4.2767 1.7469,-9.7529 1.2377,-14.5541 -0.785,-5.4895 -0.5829,-11.1015 -1.7687,-16.5324 0.3322,-4.0661 -0.6223,-8.5125 1.8673,-12.0962 1.5398,-4.3132 7.2426,-1.6606 8.7773,1.2473 2.242,3.741 -0.9269,7.5935 -0.3027,11.5219 0.1909,4.2768 1.5397,8.3895 1.967,12.6367 -1.1933,3.5087 3.2898,6.8231 5.0805,8.0904 4.4739,-2.7059 4.4825,-9.9398 10.0901,-11.1286 3.8622,-0.4146 7.8851,3.4699 8.1577,6.9671 -2.1025,4.3091 -5.5928,7.8719 -6.7868,12.6058 0.4723,3.4339 4.8636,-0.052 7.1057,0.3071 2.9738,-0.2012 6.2792,-0.5889 9.006,0.7858 3.6411,2.985 0.7664,8.1689 -3.034,9.3364 -2.5133,1.1095 -8.2435,3.4122 -3.7921,5.6221 2.0197,0.9891 4.753,2.229 5.8108,4.8517 -1.5328,2.6106 -5.2334,2.4008 -7.917,2.8252 -14.6532,0.8494 -29.4098,0.5691 -43.9689,2.6234 -3.3015,0.4908 -6.5167,1.8041 -9.816,2.0392 -0.154,-0.061 -0.3092,-0.1209 -0.4627,-0.1809 z"
     style="fill:#000000" />
  <script
     type="text/javascript"
     id="script25" />
  <path
     id="top-marker"
     style="fill:#fce6e6;fill-opacity:1;fill-rule:evenodd;stroke:#000000;stroke-width:1px;stroke-linecap:butt;stroke-linejoin:miter;stroke-opacity:1"
     d="m 1125.9662,55.929725 c -1.2239,-9.895332 4.1813,-22.491126 13.1378,-26.872703 10.047,-4.915133 26.2031,-2.132242 32.8444,6.867469 6.351,8.606287 3.9185,23.779594 -2.9858,31.948657 -5.9843,7.080443 -18.0291,9.947036 -26.8728,7.166054 -7.9504,-2.500107 -15.1005,-10.838227 -16.1236,-19.109477 z m 18.7963,117.399975 c -29.6998,-42.48459 -64.2638,-102.265772 -32.3734,-150.454182 19.4608,-31.1550353 76.8427,-32.7318243 82.5315,9.264413 8.6148,48.303657 -20.2774,92.715119 -41.2908,133.693919 -2.4074,5.50864 -2.4774,12.31954 -8.8673,7.49585 z"
     inkscape:label="top-marker" />
  <rect
     style="opacity:0.74199997;fill:none;fill-opacity:1;stroke:#000000;stroke-width:1;stroke-miterlimit:4;stroke-dasharray:4, 4;stroke-dashoffset:0;stroke-opacity:1"
     id="marker-click-box"
     width="181.1283"
     height="189.48804"
     x="1057.6903"
     y="-0.16514595"
     inkscape:label="marker-click-box" />
</svg>
