<?xml version="1.0" encoding="utf-8"?>
<!-- Generator: Adobe Illustrator 16.0.0, SVG Export Plug-In . SVG Version: 6.00 Build 0)  -->
<!DOCTYPE svg PUBLIC "-//W3C//DTD SVG 1.1//EN" "http://www.w3.org/Graphics/SVG/1.1/DTD/svg11.dtd">
<svg version="1.1" id="Layer_1" xmlns="http://www.w3.org/2000/svg" xmlns:xlink="http://www.w3.org/1999/xlink" x="0px" y="0px"
	 width="30.307px" height="26.992px" viewBox="0 0 30.307 26.992" enable-background="new 0 0 30.307 26.992" xml:space="preserve">
<g>
	<path fill="none" stroke="#777777" stroke-width="2" stroke-miterlimit="10" d="M2.852,25.977c-1.65,0-2.325-1.169-1.5-2.598
		L9.437,9.375c0.825-1.429,2.175-1.429,3,0l8.085,14.004c0.825,1.429,0.15,2.598-1.5,2.598H2.852z"/>
</g>
<g>
	<path fill="none" stroke="#777777" stroke-width="2" stroke-miterlimit="10" d="M2.852,25.977c-1.65,0-2.325-1.169-1.5-2.598
		L13.653,2.072c0.825-1.429,2.175-1.429,3,0l12.301,21.307c0.825,1.429,0.15,2.598-1.5,2.598H2.852z"/>
</g>
<g>
	<path fill="none" stroke="#777777" stroke-width="2" stroke-miterlimit="10" d="M11.19,25.992c-1.65,0-2.325-1.169-1.5-2.598
		L17.792,9.36c0.825-1.429,2.175-1.429,3,0l8.103,14.034c0.825,1.429,0.15,2.598-1.5,2.598H11.19z"/>
</g>
</svg>
