<?xml version="1.0" encoding="UTF-8" standalone="no"?>
<svg
   xmlns:dc="http://purl.org/dc/elements/1.1/"
   xmlns:cc="http://creativecommons.org/ns#"
   xmlns:rdf="http://www.w3.org/1999/02/22-rdf-syntax-ns#"
   xmlns:svg="http://www.w3.org/2000/svg"
   xmlns="http://www.w3.org/2000/svg"
   version="1.1"
   id="svg2"
   viewBox="0 0 159.7448 149.90231"
   height="149.90231"
   width="159.7448">
  <defs
     id="defs4" />
  <metadata
     id="metadata7">
    <rdf:RDF>
      <cc:Work
         rdf:about="">
        <dc:format>image/svg+xml</dc:format>
        <dc:type
           rdf:resource="http://purl.org/dc/dcmitype/StillImage" />
        <dc:title></dc:title>
      </cc:Work>
    </rdf:RDF>
  </metadata>
  <style>
    .shapes > * {
        opacity: 0;
        animation-duration: 0.75s;
        animation-iteration-count: infinite;
        animation-timing-function: steps(1);
    }

    @keyframes shapes-1 { 
      0% { 
        opacity: 1; 
      } 
      33.33333% { 
        opacity: 0; 
      } 
    }  

    .shapes > :nth-child(1) { 
      animation-name: shapes-1; 
    }  

    @keyframes shapes-2 { 
      33.33333% { 
        opacity: 1; 
      } 
      66.66667% { 
        opacity: 0; 
      } 
    }  

    .shapes > :nth-child(2) { 
      animation-name: shapes-2; 
    }  

    @keyframes shapes-3 { 
      66.66667% { 
        opacity: 1; 
      } 
      100% { 
        opacity: 0; 
      } 
    }  

    .shapes > :nth-child(3) {  
      animation-name: shapes-3; 
    }
  </style>
  <g
     transform="translate(-618.62788,-874.49514)"
     id="layer1">
    <g
       class="shapes"
       id="g3452">
      <path
         style="fill:none;fill-rule:evenodd;stroke:#fff;stroke-width:5px;stroke-linecap:butt;stroke-linejoin:miter;stroke-opacity:1"
         d="m 700.13004,909.8394 c -6.40981,-14.32012 -22.3382,-21.28092 -36.92377,-23.8464 -15.18445,0.15602 -26.55419,13.64677 -30.36263,27.3461 -6.08458,22.29624 4.18645,48.04157 23.80981,60.1687 17.42048,8.89053 31.41205,24.07342 39.33717,41.909 2.71362,1.5446 4.2147,14.2262 4.75052,5.357 2.24163,-18.4642 16.30885,-32.75626 30.97856,-42.84358 15.11618,-11.58658 31.05182,-25.13719 35.9167,-44.39628 3.29094,-10.30479 -1.28129,-20.77787 -6.83901,-29.34666 -4.00128,-7.00203 -7.81817,-14.82338 -15.63051,-18.29739 -7.52875,-3.75278 -16.6592,-5.08853 -24.76601,-2.72169 -10.3357,5.07089 -18.49468,15.18163 -20.27083,26.6712 z"
         id="path3429" />
      <path
         style="fill:none;fill-rule:evenodd;stroke:#fff;stroke-width:5px;stroke-linecap:butt;stroke-linejoin:miter;stroke-opacity:1"
         d="m 699.61869,913.48092 c -0.23797,-12.52639 -11.36097,-21.34736 -21.67738,-26.4561 -9.20698,-4.0527 -19.51341,-3.55954 -29.32813,-3.07226 -12.66594,4.79953 -18.42189,18.69254 -19.97787,31.23076 -2.7189,13.36364 4.72686,26.34632 13.78208,35.60104 7.33158,8.72941 14.82787,17.74116 25.05263,23.1921 13.84092,8.84161 25.81412,21.46519 32.04965,36.79734 1.06326,3.2653 1.67855,10.9862 3.78008,3.2817 1.82407,-7.227 4.41304,-14.42995 9.82898,-19.79335 5.6457,-5.8573 11.01316,-11.96432 15.44839,-18.79315 6.38719,-7.26313 15.09842,-12.19677 20.59669,-20.31601 5.89851,-7.54249 12.97323,-14.37174 16.48736,-23.46698 5.67859,-12.30883 8.59902,-28.18108 0.20237,-39.98772 -6.60482,-9.82291 -19.0356,-12.47605 -29.77092,-15.17883 -10.02487,-1.34185 -26.40665,7.40514 -30.15005,16.09417 -3.86424,6.65695 -0.74101,11.74463 -5.17941,18.01838 0.40778,1.07659 -0.47199,2.14958 -1.14447,2.84891 z"
         id="path3447" />
      <path
         id="path3495"
         d="m 699.61869,913.48092 c -3.41149,-12.52639 -13.22775,-17.6138 -23.54416,-22.72254 -9.20698,-4.0527 -18.01999,-4.67961 -27.83471,-4.19233 -12.66594,4.79953 -15.8084,16.07905 -17.36438,28.61727 -2.7189,13.36364 2.86009,23.73283 11.91531,32.98755 7.33158,8.72941 14.08115,17.55448 24.30591,23.00542 13.84092,8.84161 22.08057,17.73164 29.43616,33.62381 1.06326,3.2653 4.6654,22.0002 6.76693,14.2957 1.82407,-7.227 4.41304,-12.9365 9.82898,-21.28677 4.33896,-5.67062 11.19984,-14.20446 17.50185,-20.84661 6.29254,-7.04436 10.12219,-11.03118 18.72991,-17.8892 5.89851,-7.54249 13.53326,-12.87831 17.04739,-21.97355 5.67859,-12.30883 1.87862,-30.98125 -6.51803,-42.78789 -6.60482,-9.82291 -13.9953,-12.47605 -24.73062,-15.17883 -10.02487,-1.34185 -25.47326,4.79165 -29.21666,13.48068 -3.86424,6.65695 -0.74101,11.74463 -5.17941,18.01838 0.40778,1.07659 -0.47199,2.14958 -1.14447,2.84891 z"
         style="fill:none;fill-rule:evenodd;stroke:#fff;stroke-width:5px;stroke-linecap:butt;stroke-linejoin:miter;stroke-opacity:1" />
    </g>
  </g>
</svg>
